<svg width="292" height="64" viewBox="0 0 292 64" fill="none" xmlns="http://www.w3.org/2000/svg">
<path fill-rule="evenodd" clip-rule="evenodd" d="M52.9167 17.639C52.9167 16.2355 53.4742 14.8896 54.4666 13.8972C55.4589 12.9048 56.8049 12.3473 58.2083 12.3473C59.6118 12.3473 60.9577 12.9048 61.9501 13.8972C62.9425 14.8896 63.5 16.2355 63.5 17.639V53.4512L58.2083 61.3887L52.9167 53.4512V17.639ZM58.2083 15.8751C57.7405 15.8751 57.2919 16.0609 56.9611 16.3917C56.6303 16.7225 56.4444 17.1711 56.4444 17.639V52.3823L58.2083 55.0281L59.9722 52.3823V17.639C59.9722 17.1711 59.7864 16.7225 59.4556 16.3917C59.1248 16.0609 58.6762 15.8751 58.2083 15.8751Z" fill="#3F61D7"/>
<path fill-rule="evenodd" clip-rule="evenodd" d="M61.7361 24.6944H54.6806V21.1667H61.7361V24.6944ZM7.05556 3.52778C6.11993 3.52778 5.22263 3.89945 4.56104 4.56104C3.89945 5.22263 3.52778 6.11993 3.52778 7.05556V56.4444C3.52778 57.3801 3.89945 58.2774 4.56104 58.939C5.22263 59.6005 6.11993 59.9722 7.05556 59.9722H42.3333C43.269 59.9722 44.1663 59.6005 44.8279 58.939C45.4894 58.2774 45.8611 57.3801 45.8611 56.4444V7.05556C45.8611 6.11993 45.4894 5.22263 44.8279 4.56104C44.1663 3.89945 43.269 3.52778 42.3333 3.52778H7.05556ZM0 7.05556C0 5.18431 0.743351 3.3897 2.06652 2.06652C3.3897 0.743351 5.18431 0 7.05556 0H42.3333C44.2046 0 45.9992 0.743351 47.3224 2.06652C48.6455 3.3897 49.3889 5.18431 49.3889 7.05556V56.4444C49.3889 58.3157 48.6455 60.1103 47.3224 61.4335C45.9992 62.7566 44.2046 63.5 42.3333 63.5H7.05556C5.18431 63.5 3.3897 62.7566 2.06652 61.4335C0.743351 60.1103 0 58.3157 0 56.4444V7.05556Z" fill="#3F61D7"/>
<path fill-rule="evenodd" clip-rule="evenodd" d="M24.6945 15.875C24.6945 15.4072 24.8803 14.9585 25.2111 14.6277C25.5419 14.2969 25.9905 14.1111 26.4584 14.1111H40.5695C41.0373 14.1111 41.4859 14.2969 41.8167 14.6277C42.1475 14.9585 42.3334 15.4072 42.3334 15.875C42.3334 16.3428 42.1475 16.7914 41.8167 17.1222C41.4859 17.453 41.0373 17.6389 40.5695 17.6389H26.4584C25.9905 17.6389 25.5419 17.453 25.2111 17.1222C24.8803 16.7914 24.6945 16.3428 24.6945 15.875ZM24.6945 22.9305C24.6945 22.4627 24.8803 22.0141 25.2111 21.6833C25.5419 21.3525 25.9905 21.1666 26.4584 21.1666H40.5695C41.0373 21.1666 41.4859 21.3525 41.8167 21.6833C42.1475 22.0141 42.3334 22.4627 42.3334 22.9305C42.3334 23.3983 42.1475 23.847 41.8167 24.1778C41.4859 24.5086 41.0373 24.6944 40.5695 24.6944H26.4584C25.9905 24.6944 25.5419 24.5086 25.2111 24.1778C24.8803 23.847 24.6945 23.3983 24.6945 22.9305ZM24.6945 38.8055C24.6945 38.3377 24.8803 37.8891 25.2111 37.5583C25.5419 37.2275 25.9905 37.0416 26.4584 37.0416H40.5695C41.0373 37.0416 41.4859 37.2275 41.8167 37.5583C42.1475 37.8891 42.3334 38.3377 42.3334 38.8055C42.3334 39.2733 42.1475 39.722 41.8167 40.0528C41.4859 40.3836 41.0373 40.5694 40.5695 40.5694H26.4584C25.9905 40.5694 25.5419 40.3836 25.2111 40.0528C24.8803 39.722 24.6945 39.2733 24.6945 38.8055ZM24.6945 45.8611C24.6945 45.3933 24.8803 44.9446 25.2111 44.6138C25.5419 44.283 25.9905 44.0972 26.4584 44.0972H40.5695C41.0373 44.0972 41.4859 44.283 41.8167 44.6138C42.1475 44.9446 42.3334 45.3933 42.3334 45.8611C42.3334 46.3289 42.1475 46.7775 41.8167 47.1083C41.4859 47.4391 41.0373 47.625 40.5695 47.625H26.4584C25.9905 47.625 25.5419 47.4391 25.2111 47.1083C24.8803 46.7775 24.6945 46.3289 24.6945 45.8611ZM10.5834 38.8055V44.0972H15.875V38.8055H10.5834ZM8.81947 35.2778H17.6389C18.1067 35.2778 18.5554 35.4636 18.8862 35.7944C19.217 36.1252 19.4028 36.5738 19.4028 37.0416V45.8611C19.4028 46.3289 19.217 46.7775 18.8862 47.1083C18.5554 47.4391 18.1067 47.625 17.6389 47.625H8.81947C8.35166 47.625 7.90301 47.4391 7.57221 47.1083C7.24142 46.7775 7.05558 46.3289 7.05558 45.8611V37.0416C7.05558 36.5738 7.24142 36.1252 7.57221 35.7944C7.90301 35.4636 8.35166 35.2778 8.81947 35.2778ZM20.6499 14.6279C20.9806 14.9587 21.1663 15.4073 21.1663 15.875C21.1663 16.3427 20.9806 16.7913 20.6499 17.122L12.3472 25.4247L7.5724 20.6498C7.40393 20.4871 7.26955 20.2925 7.17711 20.0773C7.08467 19.8621 7.03601 19.6306 7.03397 19.3964C7.03194 19.1622 7.07657 18.9299 7.16526 18.7132C7.25395 18.4964 7.38492 18.2994 7.55054 18.1338C7.71615 17.9682 7.91309 17.8372 8.12987 17.7485C8.34665 17.6598 8.57891 17.6152 8.81312 17.6173C9.04733 17.6193 9.27879 17.6679 9.49399 17.7604C9.70919 17.8528 9.90383 17.9872 10.0665 18.1557L12.3472 20.4364L18.1557 14.6279C18.4865 14.2972 18.9351 14.1115 19.4028 14.1115C19.8705 14.1115 20.3191 14.2972 20.6499 14.6279Z" fill="#3F61D7"/>
<path d="M77.168 46V20.8H88.508C90.116 20.8 91.568 21.148 92.864 21.844C94.184 22.54 95.216 23.5 95.96 24.724C96.704 25.924 97.076 27.292 97.076 28.828C97.076 30.412 96.704 31.84 95.96 33.112C95.216 34.36 94.196 35.344 92.9 36.064C91.604 36.784 90.14 37.144 88.508 37.144H83V46H77.168ZM91.136 46L84.728 34.624L90.992 33.724L98.12 46H91.136ZM83 32.464H87.968C88.592 32.464 89.132 32.332 89.588 32.068C90.068 31.78 90.428 31.384 90.668 30.88C90.932 30.376 91.064 29.8 91.064 29.152C91.064 28.504 90.92 27.94 90.632 27.46C90.344 26.956 89.924 26.572 89.372 26.308C88.844 26.044 88.196 25.912 87.428 25.912H83V32.464ZM110.238 46.36C108.126 46.36 106.29 45.94 104.73 45.1C103.17 44.236 101.958 43.072 101.094 41.608C100.23 40.12 99.7982 38.428 99.7982 36.532C99.7982 35.068 100.038 33.724 100.518 32.5C100.998 31.276 101.67 30.22 102.534 29.332C103.398 28.42 104.418 27.724 105.594 27.244C106.794 26.74 108.102 26.488 109.518 26.488C110.862 26.488 112.086 26.728 113.19 27.208C114.318 27.688 115.29 28.36 116.106 29.224C116.922 30.088 117.546 31.108 117.978 32.284C118.41 33.46 118.602 34.744 118.554 36.136L118.518 37.684H103.29L102.462 34.444H113.838L113.226 35.128V34.408C113.178 33.808 112.986 33.28 112.65 32.824C112.338 32.344 111.918 31.972 111.39 31.708C110.862 31.444 110.262 31.312 109.59 31.312C108.654 31.312 107.85 31.504 107.178 31.888C106.53 32.248 106.038 32.788 105.702 33.508C105.366 34.204 105.198 35.068 105.198 36.1C105.198 37.156 105.414 38.08 105.846 38.872C106.302 39.64 106.95 40.24 107.79 40.672C108.654 41.104 109.674 41.32 110.85 41.32C111.666 41.32 112.386 41.2 113.01 40.96C113.658 40.72 114.354 40.312 115.098 39.736L117.798 43.552C117.054 44.2 116.262 44.728 115.422 45.136C114.582 45.544 113.718 45.844 112.83 46.036C111.966 46.252 111.102 46.36 110.238 46.36ZM122.224 53.92V26.884H127.696L127.912 31.168L126.832 30.844C127 30.052 127.408 29.332 128.056 28.684C128.704 28.036 129.52 27.52 130.504 27.136C131.512 26.728 132.568 26.524 133.672 26.524C135.304 26.524 136.756 26.956 138.028 27.82C139.3 28.66 140.296 29.824 141.016 31.312C141.76 32.776 142.132 34.48 142.132 36.424C142.132 38.344 141.76 40.048 141.016 41.536C140.296 43.024 139.288 44.2 137.992 45.064C136.72 45.904 135.256 46.324 133.6 46.324C132.52 46.324 131.488 46.12 130.504 45.712C129.52 45.304 128.692 44.752 128.02 44.056C127.348 43.36 126.904 42.604 126.688 41.788L128.02 41.284V53.92H122.224ZM132.196 41.464C133.06 41.464 133.816 41.26 134.464 40.852C135.112 40.42 135.616 39.832 135.976 39.088C136.336 38.344 136.516 37.456 136.516 36.424C136.516 35.416 136.336 34.54 135.976 33.796C135.616 33.028 135.112 32.44 134.464 32.032C133.84 31.6 133.084 31.384 132.196 31.384C131.308 31.384 130.54 31.588 129.892 31.996C129.244 32.404 128.74 32.992 128.38 33.76C128.02 34.528 127.84 35.416 127.84 36.424C127.84 37.456 128.02 38.344 128.38 39.088C128.74 39.832 129.244 40.42 129.892 40.852C130.54 41.26 131.308 41.464 132.196 41.464ZM154.954 46.36C152.962 46.36 151.186 45.928 149.626 45.064C148.09 44.2 146.866 43.024 145.954 41.536C145.066 40.048 144.622 38.344 144.622 36.424C144.622 34.504 145.066 32.8 145.954 31.312C146.866 29.824 148.09 28.648 149.626 27.784C151.186 26.92 152.962 26.488 154.954 26.488C156.946 26.488 158.71 26.92 160.246 27.784C161.806 28.648 163.03 29.824 163.918 31.312C164.806 32.8 165.25 34.504 165.25 36.424C165.25 38.344 164.806 40.048 163.918 41.536C163.03 43.024 161.806 44.2 160.246 45.064C158.71 45.928 156.946 46.36 154.954 46.36ZM154.954 41.392C155.818 41.392 156.586 41.176 157.258 40.744C157.93 40.312 158.458 39.724 158.842 38.98C159.226 38.236 159.406 37.384 159.382 36.424C159.406 35.464 159.226 34.612 158.842 33.868C158.458 33.1 157.93 32.5 157.258 32.068C156.586 31.636 155.818 31.42 154.954 31.42C154.09 31.42 153.31 31.636 152.614 32.068C151.942 32.5 151.414 33.1 151.03 33.868C150.646 34.612 150.466 35.464 150.49 36.424C150.466 37.384 150.646 38.236 151.03 38.98C151.414 39.724 151.942 40.312 152.614 40.744C153.31 41.176 154.09 41.392 154.954 41.392Z" fill="black"/>
<path d="M169.629 46V20.8H180.501C182.085 20.8 183.489 21.16 184.713 21.88C185.961 22.6 186.945 23.584 187.665 24.832C188.409 26.08 188.781 27.484 188.781 29.044C188.781 30.676 188.409 32.14 187.665 33.436C186.945 34.708 185.961 35.716 184.713 36.46C183.489 37.204 182.085 37.576 180.501 37.576H175.749V46H169.629ZM175.641 32.212H179.637C180.165 32.212 180.645 32.08 181.077 31.816C181.509 31.552 181.857 31.192 182.121 30.736C182.385 30.28 182.517 29.752 182.517 29.152C182.517 28.528 182.385 28 182.121 27.568C181.857 27.136 181.509 26.8 181.077 26.56C180.645 26.32 180.165 26.2 179.637 26.2H175.641V32.212ZM192.853 46V26.884H198.325L198.577 33.112L197.497 31.924C197.785 30.892 198.253 29.968 198.901 29.152C199.573 28.336 200.353 27.688 201.241 27.208C202.129 26.728 203.077 26.488 204.085 26.488C204.517 26.488 204.913 26.524 205.273 26.596C205.657 26.668 206.005 26.752 206.317 26.848L204.733 33.22C204.469 33.052 204.109 32.92 203.653 32.824C203.221 32.704 202.765 32.644 202.285 32.644C201.757 32.644 201.265 32.74 200.809 32.932C200.353 33.1 199.969 33.352 199.657 33.688C199.345 34.024 199.093 34.42 198.901 34.876C198.733 35.332 198.649 35.848 198.649 36.424V46H192.853ZM217.427 46.36C215.435 46.36 213.659 45.928 212.099 45.064C210.563 44.2 209.339 43.024 208.427 41.536C207.539 40.048 207.095 38.344 207.095 36.424C207.095 34.504 207.539 32.8 208.427 31.312C209.339 29.824 210.563 28.648 212.099 27.784C213.659 26.92 215.435 26.488 217.427 26.488C219.419 26.488 221.183 26.92 222.719 27.784C224.279 28.648 225.503 29.824 226.391 31.312C227.279 32.8 227.723 34.504 227.723 36.424C227.723 38.344 227.279 40.048 226.391 41.536C225.503 43.024 224.279 44.2 222.719 45.064C221.183 45.928 219.419 46.36 217.427 46.36ZM217.427 41.392C218.291 41.392 219.059 41.176 219.731 40.744C220.403 40.312 220.931 39.724 221.315 38.98C221.699 38.236 221.879 37.384 221.855 36.424C221.879 35.464 221.699 34.612 221.315 33.868C220.931 33.1 220.403 32.5 219.731 32.068C219.059 31.636 218.291 31.42 217.427 31.42C216.563 31.42 215.783 31.636 215.087 32.068C214.415 32.5 213.887 33.1 213.503 33.868C213.119 34.612 212.939 35.464 212.963 36.424C212.939 37.384 213.119 38.236 213.503 38.98C213.887 39.724 214.415 40.312 215.087 40.744C215.783 41.176 216.563 41.392 217.427 41.392ZM236.83 46L228.838 26.884H235.21L239.962 41.176L238.558 41.32L243.454 26.884H249.754L241.366 46H236.83ZM259.288 46.324C257.68 46.324 256.24 45.904 254.968 45.064C253.72 44.2 252.724 43.024 251.98 41.536C251.236 40.024 250.864 38.32 250.864 36.424C250.864 34.48 251.236 32.764 251.98 31.276C252.724 29.788 253.744 28.624 255.04 27.784C256.336 26.92 257.812 26.488 259.468 26.488C260.38 26.488 261.208 26.62 261.952 26.884C262.72 27.148 263.392 27.52 263.968 28C264.544 28.456 265.036 28.996 265.444 29.62C265.852 30.22 266.152 30.868 266.344 31.564L265.156 31.42V26.884H270.88V46H265.048V41.392L266.344 41.356C266.152 42.028 265.84 42.664 265.408 43.264C264.976 43.864 264.448 44.392 263.824 44.848C263.2 45.304 262.504 45.664 261.736 45.928C260.968 46.192 260.152 46.324 259.288 46.324ZM260.872 41.464C261.76 41.464 262.528 41.26 263.176 40.852C263.824 40.444 264.328 39.868 264.688 39.124C265.048 38.356 265.228 37.456 265.228 36.424C265.228 35.392 265.048 34.504 264.688 33.76C264.328 32.992 263.824 32.404 263.176 31.996C262.528 31.564 261.76 31.348 260.872 31.348C260.008 31.348 259.252 31.564 258.604 31.996C257.98 32.404 257.488 32.992 257.128 33.76C256.768 34.504 256.588 35.392 256.588 36.424C256.588 37.456 256.768 38.356 257.128 39.124C257.488 39.868 257.98 40.444 258.604 40.852C259.252 41.26 260.008 41.464 260.872 41.464ZM282.406 46.36C280.534 46.36 278.878 46.06 277.438 45.46C276.022 44.86 274.894 44.056 274.054 43.048L277.546 40.024C278.29 40.768 279.13 41.32 280.066 41.68C281.002 42.016 281.89 42.184 282.73 42.184C283.066 42.184 283.366 42.148 283.63 42.076C283.894 42.004 284.11 41.908 284.278 41.788C284.47 41.644 284.614 41.488 284.71 41.32C284.806 41.128 284.854 40.912 284.854 40.672C284.854 40.192 284.638 39.82 284.206 39.556C283.99 39.436 283.63 39.292 283.126 39.124C282.622 38.956 281.974 38.764 281.182 38.548C280.054 38.26 279.07 37.924 278.23 37.54C277.414 37.132 276.742 36.664 276.214 36.136C275.734 35.632 275.362 35.08 275.098 34.48C274.834 33.856 274.702 33.16 274.702 32.392C274.702 31.504 274.906 30.7 275.314 29.98C275.746 29.26 276.31 28.636 277.006 28.108C277.726 27.58 278.542 27.184 279.454 26.92C280.39 26.632 281.35 26.488 282.334 26.488C283.39 26.488 284.398 26.608 285.358 26.848C286.318 27.088 287.206 27.424 288.022 27.856C288.862 28.288 289.606 28.804 290.254 29.404L287.23 32.788C286.798 32.38 286.306 32.02 285.754 31.708C285.226 31.372 284.674 31.108 284.098 30.916C283.522 30.724 282.994 30.628 282.514 30.628C282.154 30.628 281.83 30.664 281.542 30.736C281.278 30.784 281.05 30.88 280.858 31.024C280.666 31.144 280.522 31.3 280.426 31.492C280.33 31.66 280.282 31.864 280.282 32.104C280.282 32.344 280.342 32.572 280.462 32.788C280.606 33.004 280.798 33.184 281.038 33.328C281.278 33.472 281.662 33.64 282.19 33.832C282.718 34 283.438 34.216 284.35 34.48C285.478 34.792 286.45 35.14 287.266 35.524C288.082 35.908 288.73 36.364 289.21 36.892C289.594 37.3 289.882 37.78 290.074 38.332C290.266 38.86 290.362 39.436 290.362 40.06C290.362 41.284 290.014 42.376 289.318 43.336C288.646 44.272 287.71 45.016 286.51 45.568C285.31 46.096 283.942 46.36 282.406 46.36Z" fill="#3F61D7"/>
</svg>
