<svg width="64" height="64" viewBox="0 0 64 64" fill="none" xmlns="http://www.w3.org/2000/svg">
<path fill-rule="evenodd" clip-rule="evenodd" d="M52.9167 17.6388C52.9167 16.2354 53.4742 14.8894 54.4666 13.8971C55.4589 12.9047 56.8049 12.3472 58.2083 12.3472C59.6118 12.3472 60.9577 12.9047 61.9501 13.8971C62.9425 14.8894 63.5 16.2354 63.5 17.6388V53.4511L58.2083 61.3886L52.9167 53.4511V17.6388ZM58.2083 15.8749C57.7405 15.8749 57.2919 16.0608 56.9611 16.3916C56.6303 16.7224 56.4444 17.171 56.4444 17.6388V52.3821L58.2083 55.028L59.9722 52.3821V17.6388C59.9722 17.171 59.7864 16.7224 59.4556 16.3916C59.1248 16.0608 58.6762 15.8749 58.2083 15.8749Z" fill="#3F61D7"/>
<path fill-rule="evenodd" clip-rule="evenodd" d="M61.7361 24.6944H54.6806V21.1667H61.7361V24.6944ZM7.05556 3.52778C6.11993 3.52778 5.22263 3.89945 4.56104 4.56104C3.89945 5.22263 3.52778 6.11993 3.52778 7.05556V56.4444C3.52778 57.3801 3.89945 58.2774 4.56104 58.939C5.22263 59.6005 6.11993 59.9722 7.05556 59.9722H42.3333C43.269 59.9722 44.1663 59.6005 44.8279 58.939C45.4894 58.2774 45.8611 57.3801 45.8611 56.4444V7.05556C45.8611 6.11993 45.4894 5.22263 44.8279 4.56104C44.1663 3.89945 43.269 3.52778 42.3333 3.52778H7.05556ZM0 7.05556C0 5.18431 0.743351 3.3897 2.06652 2.06652C3.3897 0.743351 5.18431 0 7.05556 0H42.3333C44.2046 0 45.9992 0.743351 47.3224 2.06652C48.6455 3.3897 49.3889 5.18431 49.3889 7.05556V56.4444C49.3889 58.3157 48.6455 60.1103 47.3224 61.4335C45.9992 62.7566 44.2046 63.5 42.3333 63.5H7.05556C5.18431 63.5 3.3897 62.7566 2.06652 61.4335C0.743351 60.1103 0 58.3157 0 56.4444V7.05556Z" fill="#3F61D7"/>
<path fill-rule="evenodd" clip-rule="evenodd" d="M24.6945 15.875C24.6945 15.4072 24.8803 14.9585 25.2111 14.6277C25.5419 14.2969 25.9905 14.1111 26.4584 14.1111H40.5695C41.0373 14.1111 41.4859 14.2969 41.8167 14.6277C42.1475 14.9585 42.3334 15.4072 42.3334 15.875C42.3334 16.3428 42.1475 16.7914 41.8167 17.1222C41.4859 17.453 41.0373 17.6389 40.5695 17.6389H26.4584C25.9905 17.6389 25.5419 17.453 25.2111 17.1222C24.8803 16.7914 24.6945 16.3428 24.6945 15.875ZM24.6945 22.9305C24.6945 22.4627 24.8803 22.0141 25.2111 21.6833C25.5419 21.3525 25.9905 21.1666 26.4584 21.1666H40.5695C41.0373 21.1666 41.4859 21.3525 41.8167 21.6833C42.1475 22.0141 42.3334 22.4627 42.3334 22.9305C42.3334 23.3983 42.1475 23.847 41.8167 24.1778C41.4859 24.5086 41.0373 24.6944 40.5695 24.6944H26.4584C25.9905 24.6944 25.5419 24.5086 25.2111 24.1778C24.8803 23.847 24.6945 23.3983 24.6945 22.9305ZM24.6945 38.8055C24.6945 38.3377 24.8803 37.8891 25.2111 37.5583C25.5419 37.2275 25.9905 37.0416 26.4584 37.0416H40.5695C41.0373 37.0416 41.4859 37.2275 41.8167 37.5583C42.1475 37.8891 42.3334 38.3377 42.3334 38.8055C42.3334 39.2733 42.1475 39.722 41.8167 40.0528C41.4859 40.3836 41.0373 40.5694 40.5695 40.5694H26.4584C25.9905 40.5694 25.5419 40.3836 25.2111 40.0528C24.8803 39.722 24.6945 39.2733 24.6945 38.8055ZM24.6945 45.8611C24.6945 45.3933 24.8803 44.9446 25.2111 44.6138C25.5419 44.283 25.9905 44.0972 26.4584 44.0972H40.5695C41.0373 44.0972 41.4859 44.283 41.8167 44.6138C42.1475 44.9446 42.3334 45.3933 42.3334 45.8611C42.3334 46.3289 42.1475 46.7775 41.8167 47.1083C41.4859 47.4391 41.0373 47.625 40.5695 47.625H26.4584C25.9905 47.625 25.5419 47.4391 25.2111 47.1083C24.8803 46.7775 24.6945 46.3289 24.6945 45.8611ZM10.5834 38.8055V44.0972H15.875V38.8055H10.5834ZM8.81947 35.2778H17.6389C18.1067 35.2778 18.5554 35.4636 18.8862 35.7944C19.217 36.1252 19.4028 36.5738 19.4028 37.0416V45.8611C19.4028 46.3289 19.217 46.7775 18.8862 47.1083C18.5554 47.4391 18.1067 47.625 17.6389 47.625H8.81947C8.35166 47.625 7.90301 47.4391 7.57221 47.1083C7.24142 46.7775 7.05558 46.3289 7.05558 45.8611V37.0416C7.05558 36.5738 7.24142 36.1252 7.57221 35.7944C7.90301 35.4636 8.35166 35.2778 8.81947 35.2778ZM20.6499 14.6279C20.9806 14.9587 21.1663 15.4073 21.1663 15.875C21.1663 16.3427 20.9806 16.7913 20.6499 17.122L12.3472 25.4247L7.5724 20.6498C7.40393 20.4871 7.26955 20.2925 7.17711 20.0773C7.08467 19.8621 7.03601 19.6306 7.03397 19.3964C7.03194 19.1622 7.07657 18.9299 7.16526 18.7132C7.25395 18.4964 7.38492 18.2994 7.55054 18.1338C7.71615 17.9682 7.91309 17.8372 8.12987 17.7485C8.34665 17.6598 8.57891 17.6152 8.81312 17.6173C9.04733 17.6193 9.27879 17.6679 9.49399 17.7604C9.70919 17.8528 9.90383 17.9872 10.0665 18.1557L12.3472 20.4364L18.1557 14.6279C18.4865 14.2972 18.9351 14.1115 19.4028 14.1115C19.8705 14.1115 20.3191 14.2972 20.6499 14.6279Z" fill="#3F61D7"/>
</svg>
